# xmcd CD database file
#
# Track frame offsets:
#	150
#	36210
#	80980
#	108911
#	154888
#	187239
#	215938
#	242859
#
# Disc length: 3521 seconds
#
# Revision: 0
# Processed by: cddbd v1.5.2PL0 Copyright (c) Steve Scherf et al.
# Submitted via: CDex 1.70beta2
#
DISCID=790dbf08
DTITLE=Oscar Peterson - Date with Oscar CD 7
DYEAR=1900
DGENRE=Jazz
TTITLE0=Always
TTITLE1=Star dust
TTITLE2=Soft winds
TTITLE3=tenderly
TTITLE4=Sweethearts on Parade
TTITLE5=Hallelujah
TTITLE6=Date with oscar 
TTITLE7=Jam blues
EXTD=
EXTT0=
EXTT1=
EXTT2=
EXTT3=
EXTT4=
EXTT5=
EXTT6=
EXTT7=
PLAYORDER=
